<?xml version="1.0" encoding="UTF-8"?>
<svg version="1.1" xmlns="http://www.w3.org/2000/svg" width="2000" height="560">
<path d="M0 0 C3.21028467 2.37825189 3.60260264 4.88395316 4.27734375 8.76953125 C3.42861084 15.59525648 -3.61652314 20.68606442 -8.33276367 25.06787109 C-10.06903956 26.70155394 -11.80461808 28.33597818 -13.53959656 29.97103882 C-14.45686712 30.83303265 -15.37413769 31.69502647 -16.31920433 32.58314133 C-21.71620714 37.67992501 -27.05022678 42.84264459 -32.38942564 47.99984622 C-38.01870587 53.43610598 -43.66950793 58.84391876 -49.40112305 64.17236328 C-76.49234669 86.74678405 -76.49234669 86.74678405 -89.27302551 117.49209595 C-89.26359617 123.46207967 -88.5241412 129.21745365 -87 135 C-85.77893555 134.97905273 -84.55787109 134.95810547 -83.29980469 134.93652344 C-78.76753476 134.86409841 -74.23531593 134.81819112 -69.70263672 134.78027344 C-67.74128619 134.76016368 -65.77999556 134.73287182 -63.81884766 134.69824219 C-60.99887305 134.64969579 -58.17969135 134.62702514 -55.359375 134.609375 C-54.04510529 134.57840729 -54.04510529 134.57840729 -52.70428467 134.54681396 C-46.64740779 134.54458384 -46.64740779 134.54458384 -43.47753906 136.77441406 C-40.81624219 140.78306944 -40.86914612 144.51355799 -40.84178162 149.25152588 C-40.82709839 151.17820099 -40.82709839 151.17820099 -40.81211853 153.14379883 C-40.80621471 154.56494103 -40.80040424 155.98608363 -40.79467773 157.40722656 C-40.78509643 158.90533721 -40.77508619 160.40344516 -40.76467896 161.90155029 C-40.73765121 165.96728225 -40.71663011 170.03302579 -40.69667697 174.0987978 C-40.67480428 178.34825563 -40.64742186 182.59767784 -40.62062073 186.84710693 C-40.5707112 194.893462 -40.52576591 202.93983686 -40.48259836 210.98623061 C-40.43321113 220.14699482 -40.37829851 229.30772329 -40.32291877 238.46845293 C-40.20912543 257.31226877 -40.10228061 276.15611834 -40 295 C-39.38516251 294.10602005 -38.77032501 293.2120401 -38.13685608 292.29096985 C-37.32054926 291.10710321 -36.50417506 289.92328302 -35.68774414 288.73950195 C-35.28365578 288.15157112 -34.87956741 287.56364029 -34.46323395 286.95789337 C-30.06007901 280.5796325 -25.14787236 274.7826476 -20 269 C-19.06994141 267.94232422 -19.06994141 267.94232422 -18.12109375 266.86328125 C6.60100392 240.4819824 43.91761507 225.99719969 79.62890625 224.8125 C114.40289682 224.12724574 147.3666603 234.57581458 174.609375 256.34765625 C176.92696629 258.28429037 176.92696629 258.28429037 180 258 C181.67551839 256.24074061 181.67551839 256.24074061 183.25 253.9375 C194.83137947 238.56759475 211.2626059 229.26203078 230.125 225.625 C250.33679701 222.98275699 272.12571799 226.58418724 288.66796875 239.09375 C306.76760292 253.88876084 318.21731688 271.32094176 321 295 C322.25993101 316.10384437 317.4130672 335.30961165 303.625 351.546875 C301.74953408 353.78680446 301.74953408 353.78680446 302.28027344 355.9387207 C303.46923298 359.34387181 305.42312152 362.34413747 307.25 365.4375 C318.94244581 385.79178733 323.74174914 408.43477136 319.75 431.6875 C319.64075195 432.33904053 319.53150391 432.99058105 319.41894531 433.66186523 C318.602527 437.99520366 317.34566387 442.09516296 315.93457031 446.27270508 C315.57276672 447.34708328 315.21096313 448.42146149 314.8381958 449.52839661 C314.56159119 450.34402573 314.28498657 451.15965485 314 452 C315.15622864 451.98889694 316.31245728 451.97779388 317.50372314 451.96635437 C328.39233728 451.86506001 339.280856 451.79007373 350.16983414 451.74093914 C355.76820744 451.71482932 361.36620084 451.67940538 366.96435547 451.62280273 C372.36546316 451.56853328 377.76620513 451.5385899 383.16756439 451.52561378 C385.22972117 451.51636486 387.2918576 451.49830396 389.35385895 451.47134972 C392.23927794 451.43512703 395.12317983 451.43005184 398.00878906 451.43237305 C398.86402664 451.41439667 399.71926422 451.39642029 400.60041809 451.37789917 C406.39544196 451.42844524 406.39544196 451.42844524 409.52874756 454.39070129 C411.74758097 458.32585136 411.82967429 461.60519064 411 466 C408.80168636 469.03215675 407.55036806 469.81654398 404 471 C402.60344541 471.08589303 401.20314223 471.11772715 399.80395508 471.11352539 C398.54298759 471.11341209 398.54298759 471.11341209 397.25654602 471.11329651 C396.35333115 471.10813522 395.45011627 471.10297394 394.51953125 471.09765625 C393.59154221 471.0962413 392.66355316 471.09482635 391.70744324 471.09336853 C388.74242942 471.08776937 385.77749101 471.07521704 382.8125 471.0625 C380.80273547 471.05748489 378.79296975 471.052922 376.78320312 471.04882812 C371.85543968 471.03780021 366.92773263 471.02053617 362 471 C361.74721283 471.82990952 361.49442566 472.65981903 361.23397827 473.51487732 C359.84556102 477.43618175 358.11923058 481.04933794 356.25634766 484.76196289 C355.69496346 485.89239769 355.69496346 485.89239769 355.12223816 487.04566956 C353.89029162 489.5234042 352.65247164 491.99814611 351.4140625 494.47265625 C350.55193815 496.20079431 349.68999219 497.92902139 348.82821655 499.65733337 C347.02361758 503.27398145 345.21593801 506.88906968 343.40625 510.50317383 C341.09052443 515.12882624 338.78393085 519.7589647 336.4798069 524.3904047 C334.70301296 527.95873981 332.92067203 531.5242822 331.13673019 535.08904839 C330.2840598 536.79490169 329.43327379 538.50169829 328.58443069 540.2094593 C327.39616131 542.59836621 326.20028746 544.98331547 325.00244141 547.36743164 C324.6552858 548.0693866 324.30813019 548.77134155 323.95045471 549.49456787 C323.61969437 550.14907425 323.28893402 550.80358063 322.94815063 551.47792053 C322.52617873 552.32211595 322.52617873 552.32211595 322.09568214 553.18336582 C321.73410704 553.7828551 321.37253193 554.38234438 321 555 C320.50571292 555.8494331 320.01142584 556.6988662 319.50216037 557.5740397 C315.83798218 561.12663007 312.80037107 560.6962133 307.86975193 560.63199902 C306.93127551 560.63956582 305.9927991 560.64713262 305.025884 560.65492871 C301.85707821 560.67429591 298.68945494 560.65779342 295.52064514 560.64164734 C293.23561 560.64811982 290.95058015 560.65677062 288.66556066 560.66742164 C282.36766103 560.69032492 276.07012896 560.68181829 269.77221644 560.66828239 C263.68371203 560.65757538 257.59525508 560.67511001 251.50676893 560.68948474 C238.2810653 560.71972097 225.05547516 560.72110791 211.82974839 560.71013172 C200.25526875 560.70055268 188.68083271 560.69982139 177.10635185 560.70801735 C175.55527655 560.70908313 174.00420124 560.71014868 172.45312594 560.71121398 C170.11595051 560.71283501 167.7787751 560.7144673 165.4415997 560.716127 C143.7052766 560.73138948 121.96896818 560.73687868 100.23264408 560.72152996 C99.00292244 560.72066181 99.00292244 560.72066181 97.74835794 560.71977612 C91.09038873 560.71501114 84.43241975 560.70995332 77.77445078 560.70487839 C51.80017938 560.68528411 25.82606341 560.69448865 -0.14819336 560.72729492 C-29.31481207 560.76405491 -58.48133976 560.78117849 -87.6479817 560.76788265 C-90.75616648 560.7665251 -93.86435127 560.76522504 -96.97253609 560.76395607 C-97.73787834 560.76362811 -98.50322059 560.76330014 -99.29175503 560.76296224 C-110.85955748 560.75837955 -122.42728235 560.7690388 -133.9950695 560.78720665 C-147.14631814 560.80780591 -160.29737272 560.80729671 -173.44861024 560.77857425 C-180.163147 560.76446895 -186.87729924 560.76070775 -193.59182739 560.78252411 C-199.73249343 560.80221293 -205.87247535 560.79445419 -212.01309342 560.76432977 C-214.24050063 560.75829633 -216.46796263 560.76250041 -218.6953262 560.777693 C-221.71235705 560.79677992 -224.72699312 560.77928279 -227.74391079 560.75225353 C-228.61843971 560.76658638 -229.49296862 560.78091922 -230.39399841 560.79568639 C-236.14151031 560.69018005 -236.14151031 560.69018005 -238.63555979 558.68509692 C-240.83860648 556.09219959 -242.64525312 553.20924294 -244.15779114 550.16543579 C-244.50964478 549.46722717 -244.86149841 548.76901855 -245.22401428 548.0496521 C-245.58941818 547.3044632 -245.95482208 546.55927429 -246.33129883 545.79150391 C-246.93223862 544.59050049 -246.93223862 544.59050049 -247.5453186 543.36523438 C-248.85685127 540.7394006 -250.15698382 538.10809883 -251.45703125 535.4765625 C-252.36841479 533.64632871 -253.2805093 531.8164488 -254.19328308 529.98690796 C-256.58574863 525.18675481 -258.96856245 520.38187375 -261.34936523 515.57592773 C-263.78371439 510.66620335 -266.22720645 505.76103449 -268.66992188 500.85546875 C-273.4555492 491.24140361 -278.23098751 481.62231642 -283 472 C-284.24612061 471.98541748 -285.49224121 471.97083496 -286.77612305 471.95581055 C-291.40759712 471.897757 -296.03858862 471.82052424 -300.66967773 471.73754883 C-302.67252764 471.70433273 -304.6754704 471.67629048 -306.6784668 471.65356445 C-309.56078594 471.61995766 -312.44225668 471.56763852 -315.32421875 471.51171875 C-316.21711105 471.50532883 -317.11000336 471.4989389 -318.029953 471.49235535 C-322.80741108 471.37984321 -326.15511318 471.15071632 -330 468 C-332.11212504 464.83181244 -332.33156464 462.86780748 -332.55859375 459.1328125 C-331.64740473 455.65372716 -329.77033405 454.2270098 -327 452 C-324.01199498 451.530692 -321.60728464 451.36346884 -318.62963867 451.43237305 C-317.79985504 451.43164291 -316.97007141 451.43091278 -316.11514282 451.43016052 C-313.38207827 451.43363419 -310.65073422 451.4724834 -307.91796875 451.51171875 C-306.01940339 451.5210477 -304.12082597 451.52816342 -302.22224426 451.53315735 C-297.23245843 451.55222073 -292.24340378 451.60131597 -287.25390625 451.65667725 C-282.15960582 451.70788389 -277.0651869 451.73067442 -271.97070312 451.75585938 C-261.98014803 451.80943524 -251.99013489 451.89474019 -242 452 C-242.00113916 451.34594801 -242.00227832 450.69189602 -242.003452 450.01802427 C-242.07055566 411.27163674 -242.12204421 372.5252567 -242.15319599 333.77882286 C-242.1569482 329.12867152 -242.16083116 324.4785203 -242.16479492 319.82836914 C-242.16558185 318.90259011 -242.16636878 317.97681109 -242.16717956 317.02297815 C-242.18024095 302.02399631 -242.20389882 287.0250489 -242.23145839 272.0260875 C-242.2594922 256.64094667 -242.27617197 241.2558239 -242.28226548 225.87065858 C-242.28638613 216.37372853 -242.29941066 206.87689577 -242.3237494 197.37999567 C-242.33958161 190.87161012 -242.34440607 184.36327502 -242.34050413 177.85487161 C-242.33857865 174.09731598 -242.34157371 170.33993061 -242.35761642 166.58240509 C-242.37487045 162.51151509 -242.36897887 158.44098952 -242.36076355 154.37007141 C-242.36950207 153.17844165 -242.3782406 151.98681188 -242.38724393 150.75907212 C-242.38127078 149.66926425 -242.37529764 148.57945638 -242.36914349 147.45662403 C-242.37028265 146.51681621 -242.37142181 145.5770084 -242.37259549 144.60872155 C-241.78822072 140.51723062 -239.88009231 137.88009231 -237 135 C-234.70802879 134.75390434 -234.70802879 134.75390434 -231.78622437 134.75949097 C-230.68122086 134.75674164 -229.57621735 134.75399231 -228.43772888 134.75115967 C-226.61109459 134.7619455 -226.61109459 134.7619455 -224.74755859 134.77294922 C-222.8305439 134.77251114 -222.8305439 134.77251114 -220.87480164 134.77206421 C-217.36464556 134.77148902 -213.85462543 134.7832701 -210.34450102 134.79721212 C-206.67829288 134.80969186 -203.01208182 134.8108878 -199.34585571 134.81326294 C-192.40082099 134.81948584 -185.45584902 134.83590757 -178.51084197 134.85596192 C-170.60527163 134.87829577 -162.69969835 134.88930801 -154.79410434 134.89935279 C-138.52936612 134.92027313 -122.26469106 134.95546478 -106 135 C-106.03665771 133.86046875 -106.07331543 132.7209375 -106.11108398 131.546875 C-106.23845775 127.29059835 -106.31838571 123.03448748 -106.38452148 118.77685547 C-106.41957274 116.93965258 -106.46723026 115.10264284 -106.52807617 113.26611328 C-106.61368418 110.61442314 -106.65283819 107.96532703 -106.68359375 105.3125 C-106.73778725 104.09481934 -106.73778725 104.09481934 -106.79307556 102.85253906 C-106.7970442 96.99619582 -105.13226363 94.15625609 -101.06980133 90.00746155 C-100.38676689 89.34499924 -99.70373245 88.68253693 -99 88 C-97.62862208 86.56748398 -96.25916261 85.13312945 -94.89141846 83.69714355 C-93.36388936 82.13367925 -91.83386622 80.57264897 -90.30175781 79.01367188 C-89.46009064 78.15418945 -88.61842346 77.29470703 -87.75125122 76.40917969 C-80.05063913 68.55515357 -72.31787187 60.73267342 -64.57368851 52.92162323 C-58.86248752 47.16007512 -53.1699623 41.38126868 -47.49990582 35.57921934 C-43.49421111 31.48347469 -39.46757653 27.40905957 -35.42518115 23.34953737 C-33.0178863 20.93080866 -30.62083205 18.50367051 -28.246315 16.05271912 C-25.59462647 13.32585934 -22.91040568 10.63555714 -20.21582031 7.95117188 C-19.44350067 7.14087524 -18.67118103 6.33057861 -17.87545776 5.49572754 C-12.44380892 0.18478852 -7.62976104 -1.83900657 0 0 Z M-223 154 C-223 178.75 -223 203.5 -223 229 C-217.555 228.01 -217.555 228.01 -212 227 C-188.7484999 224.88116231 -168.04548152 230.20755382 -145.93774414 236.53759766 C-132.22464421 240.42482652 -120.49023909 242 -106 242 C-106 212.96 -106 183.92 -106 154 C-144.61 154 -183.22 154 -223 154 Z M-87 154 C-87 182.38 -87 210.76 -87 240 C-75.88987295 239.13273258 -75.88987295 239.13273258 -61 235 C-61 208.27 -61 181.54 -61 154 C-69.58 154 -78.16 154 -87 154 Z M-223 248 C-223 315.32 -223 382.64 -223 452 C-169.54 452 -116.08 452 -61 452 C-61 386.99 -61 321.98 -61 255 C-68.99853765 256.30052654 -68.99853765 256.30052654 -76.94921875 257.8515625 C-98.57057242 262.32494602 -122.7478433 261.90954666 -144 256 C-145.38063963 255.62023548 -146.76134142 255.24069689 -148.14208984 254.86132812 C-154.49040188 253.11147751 -160.83770462 251.36024227 -167.16333008 249.52978516 C-184.45556676 244.55332148 -205.8837016 239.4418508 -223 248 Z M-10.55664062 287.35693359 C-34.85924229 315.02210768 -42.78621003 349.01297821 -41 385 C-38.72514302 408.08887362 -28.60212871 429.49477839 -15 448 C-14.56928434 448.70640617 -14.13856868 449.41281234 -13.69480103 450.14062476 C-12.14279354 452.20574146 -12.14279354 452.20574146 -9.67173558 452.49679399 C-8.28366792 452.49451566 -8.28366792 452.49451566 -6.86755848 452.49219131 C-5.26494529 452.50413761 -5.26494529 452.50413761 -3.62995607 452.51632524 C-2.45195536 452.50467387 -1.27395465 452.4930225 -0.06025696 452.48101807 C1.18778979 452.48443577 2.43583653 452.48785347 3.72170287 452.49137473 C7.19258953 452.50034107 10.66298473 452.48428899 14.13380873 452.46426249 C17.87407734 452.4470254 21.61431712 452.45283152 25.35461426 452.45587158 C31.83712545 452.45797133 38.31947589 452.44539702 44.80194664 452.42292023 C54.1745403 452.39044357 63.54705605 452.37999766 72.91969988 452.37496826 C88.125303 452.36620879 103.3308204 452.33957554 118.53637695 452.30175781 C133.30915904 452.26505458 148.08191786 452.23673457 162.85473633 452.21972656 C163.76498181 452.21867567 164.67522729 452.21762477 165.61305597 452.21654204 C170.17938565 452.21132197 174.7457155 452.20626712 179.31204545 452.20129442 C217.20809084 452.15981208 255.10403875 452.08934593 293 452 C293.80117191 450.28585594 294.59698775 448.56920804 295.390625 446.8515625 C295.83438477 445.89588379 296.27814453 444.94020508 296.73535156 443.95556641 C304.59202181 425.59401234 303.45287412 404.72001304 296.4140625 386.3203125 C287.99329504 366.54779221 272.83852153 349.69492802 252.90234375 341.1796875 C244.19754714 337.68857365 235.45568902 334.83440124 226 335 C226.13631836 335.85827393 226.13631836 335.85827393 226.27539062 336.73388672 C227.84762372 346.83044517 229.30058366 356.892643 229.4375 367.125 C229.47037109 368.23270752 229.47037109 368.23270752 229.50390625 369.36279297 C229.49116148 372.76007047 229.23397865 374.67725313 227.21875 377.45703125 C224.55246282 379.31122744 222.31208958 379.52026735 219.09765625 379.62890625 C215.54248201 378.56301602 214.19872158 376.98238755 212 374 C211.19231712 370.43731802 211.07876872 366.89241809 210.9375 363.25 C208.72296477 328.53470581 193.58583412 299.29636488 168.375 275.5 C147.33233105 257.08766467 119.99488235 245.41691889 92 244 C91.01515625 243.94714844 90.0303125 243.89429688 89.015625 243.83984375 C50.64764976 242.80408855 15.3062718 259.45266184 -10.55664062 287.35693359 Z M196.18359375 267.05078125 C193.67826807 270.13519736 193.67826807 270.13519736 193.140625 273.92578125 C194.27467568 276.66296721 195.91101431 278.21263418 198 280.3125 C201.74782089 284.36966484 204.79334057 288.47436968 207.625 293.1875 C208.00873779 293.81527344 208.39247559 294.44304687 208.7878418 295.08984375 C210.734815 298.39815265 212.26539617 301.56028401 213.41796875 305.2265625 C214.81485479 309.47630038 216.0496611 312.55870268 219 316 C224.5225748 318.12973416 230.67343395 317.79209878 236.50976562 317.88671875 C253.03636431 318.63851696 273.3111364 328.3111364 285 340 C286.99775046 340.04975532 286.99775046 340.04975532 289 339 C297.75476112 328.42133032 302.68210438 314.22737012 302.2421875 300.4921875 C300.70700219 284.69463544 294.42759884 269.21026183 282.27734375 258.62890625 C254.42540278 236.74267135 219.35984825 240.8840423 196.18359375 267.05078125 Z M-41 444 C-41 446.64 -41 449.28 -41 452 C-39.35 452 -37.7 452 -36 452 C-37.32 449.36 -38.64 446.72 -40 444 C-40.33 444 -40.66 444 -41 444 Z M-262 471 C-250.70450376 494.84604762 -238.80018832 518.39962336 -227 542 C-51.11 542 124.78 542 306 542 C329.40009416 507.8928233 329.40009416 507.8928233 341 471 C142.01 471 -56.98 471 -262 471 Z " fill="#757956" transform="translate(334,0)"/>
<path d="M0 0 C3.63 0 7.26 0 11 0 C21.25275479 27.22163173 31.41146675 54.47522576 41.42045593 81.78744507 C41.7895961 82.79473663 42.15873627 83.8020282 42.5390625 84.83984375 C42.90671219 85.84318756 43.27436188 86.84653137 43.65315247 87.88027954 C48.08011283 99.95588153 52.54335836 112.01806396 57.00808716 124.07974243 C60.51340965 133.54955995 64.01488771 143.02050949 67.47265625 152.5078125 C67.73610336 153.22993423 67.99955048 153.95205597 68.27098083 154.69606018 C69.47327486 157.9922764 70.67282943 161.28943458 71.86694336 164.58862305 C72.47421265 166.25598511 72.47421265 166.25598511 73.09375 167.95703125 C73.44115234 168.91585205 73.78855469 169.87467285 74.14648438 170.86254883 C74.81616663 172.94765409 74.81616663 172.94765409 76 174 C76.20028305 173.45068817 76.4005661 172.90137634 76.60691833 172.3354187 C87.62993071 142.10604482 98.70723656 111.89765687 109.88085938 81.72363281 C113.54913547 71.81707294 117.2122873 61.90861789 120.875 52 C121.22982452 51.0402124 121.58464905 50.0804248 121.95022583 49.09155273 C127.99537429 32.73812667 134.01161314 16.37429324 140 0 C143.96 0 147.92 0 152 0 C152 70.95 152 141.9 152 215 C145.07 215 138.14 215 131 215 C130.67 171.11 130.34 127.22 130 82 C116.39307602 119.61244517 116.39307602 119.61244517 102.8125 157.234375 C101.69609665 160.33106526 100.57949135 163.42768259 99.46276855 166.52425766 C93.63624181 182.68082211 87.81583276 198.83958316 82 215 C78.04 215 74.08 215 70 215 C60.87717861 190.39014224 51.89612535 165.73042201 42.98950195 141.04150391 C35.74832005 120.99342391 28.36954084 101.00303941 21 81 C20.67 125.22 20.34 169.44 20 215 C13.4 215 6.8 215 0 215 C0 144.05 0 73.1 0 0 Z " fill="#3C2F27" transform="translate(796,171)"/>
<path d="M0 0 C3.6314391 3.46786076 5.93589257 6.21504903 7.60546875 11.0078125 C10.2317704 8.45654804 12.54738777 6.08639264 14.73046875 3.1328125 C21.57717357 -5.19949808 33.05369872 -9.95770024 43.60546875 -10.9921875 C57.0227734 -11.80355843 69.58434482 -8.74756695 80.29296875 -0.3046875 C89.0258223 7.76908276 94.07822658 18.28746427 95.60546875 30.0078125 C95.74637369 33.78459884 95.73177413 37.55839079 95.71899414 41.33740234 C95.71914017 42.46969269 95.71928619 43.60198303 95.71943665 44.76858521 C95.71874135 48.50199312 95.71096685 52.23535082 95.703125 55.96875 C95.70125946 58.56092298 95.6998362 61.15309632 95.69883728 63.74526978 C95.69541246 69.86495858 95.68753518 75.98462674 95.67748779 82.10430777 C95.66629413 89.07408206 95.66080801 96.04385722 95.65579236 103.01363826 C95.64535166 117.34503956 95.62757009 131.67642475 95.60546875 146.0078125 C89.00546875 146.0078125 82.40546875 146.0078125 75.60546875 146.0078125 C75.60404373 144.53917755 75.60261871 143.0705426 75.60115051 141.55740356 C75.58446059 127.69776989 75.54192083 113.8383814 75.47337818 99.97891426 C75.43879942 92.85407245 75.41338206 85.72942268 75.40991211 78.60449219 C75.40686224 72.39070954 75.38623554 66.17726954 75.34494418 59.96361911 C75.32370395 56.67671832 75.31358911 53.390408 75.31931496 50.10342789 C75.32423029 46.4240574 75.29808288 42.74609203 75.26489258 39.06689453 C75.27351822 37.99010941 75.28214386 36.91332428 75.29103088 35.8039093 C75.18269006 28.61048574 73.7493059 22.97842081 69.60546875 17.0078125 C61.86516588 9.63308674 53.45337835 7.69445164 42.93359375 7.85546875 C33.30915464 8.48525587 26.33017546 11.61235882 19.96484375 18.8359375 C15.52634704 25.92732879 15.16211401 32.50448071 15.1730957 40.65625 C15.16290405 41.79858597 15.1527124 42.94092194 15.14221191 44.11787415 C15.11215099 47.87290394 15.10282621 51.62767832 15.09375 55.3828125 C15.07689826 57.9945561 15.05874736 60.60629162 15.03935242 63.21801758 C14.99580011 69.37656102 14.96718421 75.53507822 14.94402903 81.69372845 C14.91691663 88.70957774 14.87300907 95.72529112 14.82774031 102.74104309 C14.73505568 117.16322172 14.66389683 131.58545539 14.60546875 146.0078125 C8.33546875 146.0078125 2.06546875 146.0078125 -4.39453125 146.0078125 C-4.40039749 144.57454117 -4.40626373 143.14126984 -4.41230774 141.66456604 C-4.46957412 128.14312546 -4.54218095 114.62183067 -4.63024616 101.10055637 C-4.67512829 94.1494912 -4.71456019 87.1984764 -4.7409668 80.24731445 C-4.76647646 73.53635397 -4.80743189 66.82564856 -4.85771751 60.11482048 C-4.87437461 57.55727884 -4.88589606 54.99969831 -4.89214516 52.44211006 C-4.90179843 48.85382765 -4.92987414 45.26611901 -4.9621582 41.67797852 C-4.96072311 40.62565033 -4.95928802 39.57332214 -4.95780945 38.48910522 C-5.07671782 29.1152575 -6.83805175 21.66381717 -13.3671875 14.734375 C-21.03316318 8.2057406 -30.72491828 7.45191947 -40.39453125 8.0078125 C-48.14842109 8.90495678 -54.30797455 11.75441489 -59.70703125 17.4453125 C-65.46156992 26.18368604 -65.54324117 34.0297432 -65.59985352 44.17553711 C-65.61470291 45.8303006 -65.61470291 45.8303006 -65.62985229 47.51849365 C-65.66132967 51.14902635 -65.68617018 54.7795721 -65.7109375 58.41015625 C-65.73151891 60.9336429 -65.75251569 63.45712619 -65.77391052 65.98060608 C-65.82338307 71.93377373 -65.86867994 77.88696379 -65.91193289 83.84017903 C-65.96143612 90.62137966 -66.01630542 97.40253361 -66.07161248 104.183689 C-66.18519833 118.12502014 -66.29189734 132.06639682 -66.39453125 146.0078125 C-72.66453125 146.0078125 -78.93453125 146.0078125 -85.39453125 146.0078125 C-85.39453125 95.1878125 -85.39453125 44.3678125 -85.39453125 -7.9921875 C-78.39453125 -7.9921875 -78.39453125 -7.9921875 -76.28515625 -5.9453125 C-75.47304687 -4.60726562 -75.47304687 -4.60726562 -74.64453125 -3.2421875 C-74.0928125 -2.36046875 -73.54109375 -1.47875 -72.97265625 -0.5703125 C-72.451875 0.28046875 -71.93109375 1.13125 -71.39453125 2.0078125 C-70.41049134 3.35296797 -69.41606062 4.69090114 -68.39453125 6.0078125 C-67.96785156 5.51152344 -67.54117187 5.01523438 -67.1015625 4.50390625 C-49.56169349 -14.55487925 -20.0643857 -16.6930452 0 0 Z " fill="#3C2F27" transform="translate(1416.39453125,239.9921875)"/>
<path d="M0 0 C6.27 0 12.54 0 19 0 C19 70.95 19 141.9 19 215 C12 215 12 215 9.890625 212.953125 C9.34921875 212.06109375 8.8078125 211.1690625 8.25 210.25 C7.69828125 209.36828125 7.1465625 208.4865625 6.578125 207.578125 C6.05734375 206.72734375 5.5365625 205.8765625 5 205 C4.01596009 203.65484453 3.02152937 202.31691136 2 201 C1.23429687 201.87011719 1.23429687 201.87011719 0.453125 202.7578125 C-8.07598318 211.92206703 -18.60366936 217.64926747 -31.26171875 218.3359375 C-45.93664241 218.63482247 -59.26019723 215.95671644 -70.44140625 205.77734375 C-79.82320556 196.02460015 -84.32173247 184.3337438 -84.2746582 170.84667969 C-84.27976913 170.07474777 -84.28488007 169.30281586 -84.29014587 168.50749207 C-84.30394037 165.97887209 -84.30309234 163.45052792 -84.30078125 160.921875 C-84.30467468 159.14601543 -84.30901067 157.37015678 -84.31376648 155.59429932 C-84.32120762 151.87907895 -84.32095342 148.16395365 -84.31567383 144.44873047 C-84.30989206 139.71711597 -84.32678916 134.98589456 -84.3500185 130.25434494 C-84.36484382 126.58746106 -84.36561548 122.92066984 -84.36250877 119.25376129 C-84.36301791 117.51086908 -84.3681779 115.76797111 -84.37832069 114.02510834 C-84.46488542 97.06704368 -82.34229568 83.00453683 -70.35546875 70.140625 C-59.388415 60.17388295 -46.27461648 57.22591109 -31.83203125 57.71484375 C-19.37041143 58.64216102 -9.77342218 63.22657782 -1 72 C-0.67 48.24 -0.34 24.48 0 0 Z M-57.50390625 84.4140625 C-63.96846254 91.63120893 -65.11659611 99.83249077 -65.14526367 109.14770508 C-65.14862228 109.83638168 -65.1519809 110.52505829 -65.15544128 111.23460388 C-65.1648881 113.49626503 -65.16689129 115.75785164 -65.16796875 118.01953125 C-65.17118591 119.60365325 -65.17455032 121.18777497 -65.17805481 122.77189636 C-65.18403057 126.08792814 -65.18589633 129.40393392 -65.18530273 132.7199707 C-65.18520125 136.94964579 -65.19884603 141.17915248 -65.21607494 145.40878773 C-65.22724499 148.68007662 -65.2292204 151.95132545 -65.22869301 155.22263145 C-65.22986587 156.7809984 -65.2342483 158.33936663 -65.24202538 159.89771461 C-65.40228443 177.13224896 -65.40228443 177.13224896 -57.3125 191.8828125 C-49.40745045 199.50098525 -40.81869177 200.4693039 -30.26025391 200.34960938 C-21.08808446 200.04747693 -14.43621221 198.31441174 -7.6875 191.82421875 C-1.46574094 185.09838199 0.30700238 178.19702541 0.2746582 169.18798828 C0.2823246 168.0669722 0.2823246 168.0669722 0.29014587 166.92330933 C0.30395559 164.4722271 0.30309155 162.02142882 0.30078125 159.5703125 C0.30467312 157.85309751 0.30900879 156.13588347 0.31376648 154.41867065 C0.32121031 150.82611974 0.32095092 147.23366712 0.31567383 143.64111328 C0.3098838 139.05602128 0.32680777 134.47133384 0.3500185 129.88630867 C0.36480975 126.3413562 0.3656202 122.79649993 0.36250877 119.25152206 C0.36301935 117.56197179 0.36820715 115.87241575 0.37832069 114.18289566 C0.44282607 101.90002819 0.09664841 92.30712828 -8.8203125 82.94921875 C-21.42989368 71.6729087 -45.34655692 72.98299638 -57.50390625 84.4140625 Z " fill="#3C2F27" transform="translate(1209,171)"/>
<path d="M0 0 C0.70511719 0.25523437 1.41023438 0.51046875 2.13671875 0.7734375 C12.41840609 5.17698925 20.56856127 14.42740072 25.11761475 24.46638489 C27.74127594 31.20920981 28.54790433 36.93561643 28.390625 44.13671875 C28.38659668 45.02991821 28.38256836 45.92311768 28.37841797 46.84338379 C28.35776238 50.12497005 28.30192091 53.4062595 28.25 56.6875 C28.1675 64.050625 28.085 71.41375 28 79 C0.61 79 -26.78 79 -55 79 C-56.93578532 114.89809691 -56.93578532 114.89809691 -49 129 C-39.76256912 137.46764498 -30.55747564 138.72269328 -18.40234375 138.35546875 C-10.91870829 137.91186357 -3.18860942 135.6464279 2 130 C6.2855499 123.26556445 8.13709695 117.79752447 8.5625 109.8125 C8.62727539 108.68811523 8.62727539 108.68811523 8.69335938 107.54101562 C8.79922685 105.69421625 8.9000976 103.84713166 9 102 C11.60466543 102.30872329 14.20867691 102.62181723 16.8125 102.9375 C17.55048828 103.02451172 18.28847656 103.11152344 19.04882812 103.20117188 C22.16733121 103.58216546 25.01108122 104.00369374 28 105 C28.73448285 121.26063416 25.60934543 132.88099712 14.375 145.1875 C1.88617491 157.15098254 -13.65864664 157.57766506 -29.9296875 157.30859375 C-43.01438157 156.82656818 -54.6785224 151.92616132 -63.8125 142.3125 C-74.64961364 128.81820946 -75.31343342 114.23392524 -75.265625 97.6875 C-75.26697577 96.02563419 -75.26891971 94.36376877 -75.27142334 92.7019043 C-75.27435525 89.2358012 -75.2701397 85.76980188 -75.26074219 82.30371094 C-75.24934883 77.88939652 -75.25591874 73.47532542 -75.26788712 69.0610199 C-75.27515825 65.6343812 -75.27279382 62.20779897 -75.26763153 58.78115845 C-75.26630952 57.15467296 -75.26789117 55.52818212 -75.27259064 53.90170288 C-75.30840447 38.02798253 -74.21835868 22.8031547 -62.74609375 10.5859375 C-46.46849523 -4.19863745 -20.51446673 -7.82475514 0 0 Z M-48 23 C-58.65580745 35.91680861 -55 44.67756985 -55 64 C-33.88 64 -12.76 64 9 64 C10.92567465 40.74405498 10.92567465 40.74405498 1.5625 23.125 C-11.8425632 12.00860612 -34.5758993 10.88244345 -48 23 Z " fill="#3C2F27" transform="translate(1061,232)"/>
<path d="M0 0 C1.01457275 0.00418945 2.02914551 0.00837891 3.07446289 0.01269531 C10.28608199 0.12148007 16.89515318 0.72172095 23.6875 3.3125 C24.39261719 3.56773437 25.09773438 3.82296875 25.82421875 4.0859375 C36.10590609 8.48948925 44.25606127 17.73990072 48.80511475 27.77888489 C51.42877594 34.52170981 52.23540433 40.24811643 52.078125 47.44921875 C52.07409668 48.34241821 52.07006836 49.23561768 52.06591797 50.15588379 C52.04526238 53.43747005 51.98942091 56.7187595 51.9375 60 C51.855 67.363125 51.7725 74.72625 51.6875 82.3125 C24.2975 82.3125 -3.0925 82.3125 -31.3125 82.3125 C-33.43801066 108.71101895 -33.43801066 108.71101895 -23.8984375 133.9296875 C-14.70481629 141.94580057 -4.06346145 141.97711174 7.50244141 141.50048828 C14.16979018 140.9268728 21.11937622 138.28369353 25.6875 133.3125 C29.9730499 126.57806445 31.82459695 121.11002447 32.25 113.125 C32.31477539 112.00061523 32.31477539 112.00061523 32.38085938 110.85351562 C32.48672685 109.00671625 32.5875976 107.15963166 32.6875 105.3125 C35.29216543 105.62122329 37.89617691 105.93431723 40.5 106.25 C41.23798828 106.33701172 41.97597656 106.42402344 42.73632812 106.51367188 C45.85483121 106.89466546 48.69858122 107.31619374 51.6875 108.3125 C52.38607146 123.77809591 49.85655565 135.06856861 39.3125 147 C23.79054436 160.67410378 7.76861957 161.51287415 -12.3125 160.3125 C-23.62935434 158.88717881 -34.62820706 152.46956429 -41.75 143.6015625 C-50.90599978 130.18802282 -51.62419243 116.94070996 -51.578125 101.21875 C-51.57947584 99.57930443 -51.58141984 97.93985925 -51.58392334 96.30041504 C-51.58685492 92.88138985 -51.58264079 89.46246989 -51.57324219 86.04345703 C-51.56184885 81.6896756 -51.56841893 77.33614088 -51.58038712 72.98236847 C-51.58765916 69.60205266 -51.58529342 66.22179409 -51.58013153 62.84147644 C-51.57880977 61.23731964 -51.58039026 59.63315742 -51.58509064 58.02900696 C-51.62201257 41.89205048 -50.42779062 27.14741883 -38.9375 14.75 C-37.638125 13.5434375 -37.638125 13.5434375 -36.3125 12.3125 C-35.425625 11.4875 -34.53875 10.6625 -33.625 9.8125 C-23.66572777 1.71739924 -12.46027916 -0.07008843 0 0 Z M-25.9140625 28.05078125 C-34.81081012 39.783042 -31.3125 52.0226052 -31.3125 67.3125 C-10.1925 67.3125 10.9275 67.3125 32.6875 67.3125 C34.77449678 41.25042558 34.77449678 41.25042558 26.6875 27.3125 C12.76488642 14.88924481 -12.64180965 13.6455312 -25.9140625 28.05078125 Z " fill="#3C3027" transform="translate(1598.3125,228.6875)"/>
<path d="M0 0 C9.80320276 8.28377938 15.49708989 18.02138999 16.70541954 30.93163109 C16.79911826 34.02502318 16.80527194 37.10529996 16.77416992 40.19995117 C16.77482704 41.94337296 16.77482704 41.94337296 16.77549744 43.72201538 C16.77342399 47.52579127 16.75016088 51.32911456 16.7265625 55.1328125 C16.7209614 57.78510788 16.71654598 60.43737889 16.71369934 63.0896759 C16.70441958 69.33322122 16.67986176 75.5766067 16.64965087 81.82008201 C16.61597914 88.9350521 16.59958894 96.05003031 16.58456457 103.1650604 C16.55330792 117.78590351 16.50062772 132.40662139 16.43359375 147.02734375 C13.08349609 147.17333984 13.08349609 147.17333984 9.43359375 147.02734375 C7.03515625 144.69140625 7.03515625 144.69140625 5.05859375 141.65234375 C4.05699219 140.15574219 4.05699219 140.15574219 3.03515625 138.62890625 C1.43359375 136.02734375 1.43359375 136.02734375 0.43359375 134.02734375 C-0.22640625 134.02734375 -0.88640625 134.02734375 -1.56640625 134.02734375 C-2.72788283 135.18882033 -3.88657945 136.35320713 -5.03125 137.53125 C-15.19151499 147.43298407 -26.62756365 150.31902061 -40.48046875 150.34423828 C-52.70793944 150.14519786 -63.91535054 146.08246487 -73.0078125 137.8046875 C-83.25687879 127.1503863 -87.07493913 114.85235576 -86.8203125 100.3046875 C-85.7928315 87.04227886 -80.03967863 77.10526287 -70.56640625 68.02734375 C-62.87585408 61.90314778 -54.65121109 57.88695344 -44.68432617 57.91381836 C-43.74372849 57.91389389 -42.8031308 57.91396942 -41.83403015 57.91404724 C-40.33063835 57.92178917 -40.33063835 57.92178917 -38.796875 57.9296875 C-37.76073563 57.93110245 -36.72459625 57.9325174 -35.65705872 57.93397522 C-32.35597821 57.93956133 -29.05496617 57.95211133 -25.75390625 57.96484375 C-23.51237077 57.96986054 -21.27083423 57.97442314 -19.02929688 57.97851562 C-13.54164341 57.98952622 -8.05402972 58.00625057 -2.56640625 58.02734375 C-2.61891519 53.75556054 -2.71413686 49.48570249 -2.81640625 45.21484375 C-2.83058594 44.01923828 -2.84476563 42.82363281 -2.859375 41.59179688 C-3.08819743 33.19401354 -3.71543485 24.39229425 -9.5090332 17.82543945 C-17.65363283 10.24679432 -25.88198794 8.73029692 -36.73046875 8.87890625 C-44.45384687 9.2831602 -51.73846031 10.61122268 -57.56640625 16.02734375 C-62.08198845 22.18585019 -64.55495469 27.5894873 -65.12890625 35.21484375 C-65.27328125 37.13296875 -65.41765625 39.05109375 -65.56640625 41.02734375 C-74.97140625 39.54234375 -74.97140625 39.54234375 -84.56640625 38.02734375 C-85.20927344 24.36641596 -81.71850268 14.55484334 -72.94140625 4.08984375 C-55.16597854 -15.00228231 -19.98867006 -15.36419845 0 0 Z M-63.75390625 85.71484375 C-68.67491228 94.7084065 -68.56719045 105.65095863 -65.91796875 115.41796875 C-63.13000289 121.91469654 -57.52966178 126.93368049 -51.35546875 130.1953125 C-41.76294808 133.6820137 -28.29547418 133.598255 -18.7109375 130.13671875 C-11.58751006 126.45173989 -6.0993102 120.46355816 -3.47705078 112.87475586 C-2.4663087 108.60443832 -2.31117775 104.82972882 -2.37109375 100.46875 C-2.37533859 99.28502052 -2.37533859 99.28502052 -2.37966919 98.07737732 C-2.39077568 95.58137203 -2.4158617 93.08573877 -2.44140625 90.58984375 C-2.4514484 88.88737501 -2.46057208 87.18490059 -2.46875 85.48242188 C-2.49068365 81.33058799 -2.52514648 77.17902873 -2.56640625 73.02734375 C-8.64950253 72.90295679 -14.73184476 72.81263424 -20.81591797 72.75268555 C-22.88180451 72.72767286 -24.94760373 72.69365139 -27.01318359 72.65014648 C-29.99729049 72.58890817 -32.98021912 72.56100115 -35.96484375 72.5390625 C-37.3310939 72.50035286 -37.3310939 72.50035286 -38.72494507 72.46086121 C-49.65845968 72.45616989 -57.00267609 77.42047527 -63.75390625 85.71484375 Z " fill="#3C2F27" transform="translate(1772.56640625,238.97265625)"/>
<path d="M0 0 C1.45067871 0.00737183 1.45067871 0.00737183 2.93066406 0.01489258 C16.04447082 0.23065298 28.4683319 3.93638117 38.0625 13.3125 C46.75444076 23.27806704 51.0625 34.07965148 51.0625 47.3125 C44.4625 48.3025 37.8625 49.2925 31.0625 50.3125 C31.000625 48.53875 30.93875 46.765 30.875 44.9375 C30.24398942 37.7064598 28.43757156 31.59893332 23.12890625 26.4296875 C14.34235626 19.55325707 4.95467006 18.71402912 -5.9375 19.3125 C-14.52199743 20.39789623 -21.13373996 22.56758968 -26.9375 29.3125 C-30.99457993 35.97770274 -31.58868845 42.32381047 -29.8359375 49.82421875 C-26.97217866 57.75558563 -20.73690422 61.24791747 -13.49560547 64.76464844 C-6.97583731 67.60088627 -0.21410961 69.68262066 6.5625 71.8125 C38.53362553 81.86098201 38.53362553 81.86098201 46.98046875 95.3828125 C52.83173317 106.69618361 54.20087803 119.44537135 50.5 131.75 C46.19905285 142.91126073 37.66475934 151.17117511 26.9128418 156.13720703 C17.98106356 159.8200833 9.14575846 160.79464202 -0.4375 160.6875 C-1.47519531 160.69910156 -2.51289062 160.71070313 -3.58203125 160.72265625 C-18.91144464 160.66538571 -30.50932263 156.14304213 -41.640625 145.703125 C-50.15409938 136.84216187 -54.13450064 126.23955853 -54 114 C-53.99097656 112.93136719 -53.98195313 111.86273438 -53.97265625 110.76171875 C-53.96105469 109.95347656 -53.94945312 109.14523437 -53.9375 108.3125 C-51.52174393 107.80771515 -49.10505639 107.30852358 -46.6875 106.8125 C-46.00558594 106.66941406 -45.32367187 106.52632813 -44.62109375 106.37890625 C-41.29116879 105.69998951 -38.35417449 105.3125 -34.9375 105.3125 C-34.83953125 106.446875 -34.7415625 107.58125 -34.640625 108.75 C-33.5762169 120.05971333 -33.5762169 120.05971333 -28.9375 130.3125 C-28.64875 130.99699219 -28.36 131.68148437 -28.0625 132.38671875 C-26.6580468 134.79086954 -25.47956522 135.25915806 -22.9375 136.3125 C-22.28910156 136.65410156 -21.64070313 136.99570312 -20.97265625 137.34765625 C-19.99619141 137.85619141 -19.99619141 137.85619141 -19 138.375 C-18.35160156 138.71660156 -17.70320313 139.05820312 -17.03515625 139.41015625 C-8.20022076 143.21065923 6.0321822 142.63129499 15.1796875 140.06640625 C22.44926096 137.15556044 27.5034806 132.82124847 31.375 126 C33.36893552 118.20552477 32.0366804 111.27326507 28.0625 104.3125 C20.36301044 94.43515482 5.03107035 91.16792489 -6.375 87.875 C-38.52921765 78.28576365 -38.52921765 78.28576365 -46.90625 63.59765625 C-51.78222522 52.79293844 -52.95132199 39.58207714 -48.9375 28.3125 C-43.45981687 15.77148862 -35.45566071 8.28686491 -22.90356445 3.00366211 C-15.44533535 0.38175145 -7.84072953 -0.04727458 0 0 Z " fill="#3C3027" transform="translate(1945.9375,228.6875)"/>
<path d="M0 0 C6.27 0 12.54 0 19 0 C19 70.95 19 141.9 19 215 C12.73 215 6.46 215 0 215 C0 144.05 0 73.1 0 0 Z " fill="#3C2F27" transform="translate(1831,171)"/>
<path d="M0 0 C6.27 0 12.54 0 19 0 C19 50.82 19 101.64 19 154 C12.73 154 6.46 154 0 154 C0 103.18 0 52.36 0 0 Z " fill="#3C2F27" transform="translate(1270,232)"/>
<path d="M0 0 C0.67160156 0.13664062 1.34320313 0.27328125 2.03515625 0.4140625 C4.8197651 1.82066163 5.55551206 3.61005007 6.9375 6.375 C7.31223011 9.17832184 7.31223011 9.17832184 7.3117218 12.29553223 C7.32224327 14.07459709 7.32224327 14.07459709 7.33297729 15.88960266 C7.32533356 17.18222519 7.31768982 18.47484772 7.30981445 19.80664062 C7.31224373 21.18841323 7.31596438 22.57018407 7.32087708 23.95195007 C7.33027116 27.69783216 7.32087324 31.44345228 7.30754495 35.18931389 C7.29621566 39.11209011 7.3003391 43.03485372 7.30229187 46.9576416 C7.30317438 53.54488395 7.29210351 60.13202329 7.27368164 66.71923828 C7.25251466 74.33155253 7.2490044 81.94371592 7.2552436 89.55605364 C7.26094132 96.88327047 7.25528679 104.21043425 7.24407005 111.53764343 C7.23942947 114.65395592 7.23854788 117.7702359 7.2406559 120.8865509 C7.24254168 124.55720497 7.2344127 128.22770583 7.2185955 131.89832497 C7.21233979 133.88567261 7.2158566 135.8730435 7.21966553 137.86039734 C7.20903831 139.6394622 7.20903831 139.6394622 7.19819641 141.45446777 C7.19614354 142.4831472 7.19409067 143.51182663 7.19197559 144.57167816 C6.9191073 147.57761538 6.32714633 149.69946301 4.9375 152.375 C1.91542605 154.38971597 1.02023301 154.71219034 -2.4375 154.8125 C-3.18773437 154.85246094 -3.93796875 154.89242187 -4.7109375 154.93359375 C-7.40040717 154.29473301 -9.08141862 153.32281135 -10.98997307 151.31472969 C-13.56774805 146.65266806 -12.74103678 140.75220039 -12.69360352 135.56030273 C-12.69874405 134.13749296 -12.70602634 132.71468956 -12.71528625 131.29190063 C-12.73379035 127.43437295 -12.72086926 123.577537 -12.70119596 119.72003818 C-12.68480282 115.68200811 -12.69362312 111.64402163 -12.69871521 107.60597229 C-12.70323493 100.82615108 -12.6873728 94.04660588 -12.65942383 87.2668457 C-12.62735938 79.42832119 -12.62739294 71.59029409 -12.6446386 63.7517342 C-12.66050033 56.20982846 -12.65377331 48.66810511 -12.63670158 41.12620735 C-12.62982877 37.9169231 -12.6308658 34.70778494 -12.63824654 31.49850273 C-12.645906 27.72017185 -12.6337952 23.94240739 -12.60639763 20.16417313 C-12.59950951 18.77745432 -12.59942048 17.39068264 -12.60661316 16.00396538 C-12.61529743 14.11168244 -12.59692625 12.21933284 -12.5771637 10.32713318 C-12.57435678 9.26803458 -12.57154985 8.20893599 -12.56865788 7.11774349 C-11.93666589 3.69313631 -10.74370645 2.52411215 -8.0625 0.375 C-5.16314236 -0.77112572 -3.01540415 -0.68558322 0 0 Z " fill="#757956" transform="translate(150.0625,270.625)"/>
<path d="M0 0 C1.47697463 2.28163465 1.52327631 3.91624784 1.52734375 6.62109375 C1.54667969 7.47574219 1.56601562 8.33039063 1.5859375 9.2109375 C0.88928241 12.68324199 0.02647765 13.66964844 -2.91015625 15.68359375 C-6.14741004 16.48838911 -9.40801779 16.79048139 -12.72265625 17.12109375 C-31.98777571 19.50920886 -50.0520291 26.6125088 -62.78515625 41.99609375 C-73.5708068 55.94305567 -78.59770801 71.78665711 -79.5703125 89.24609375 C-80.04259081 92.63346918 -81.36948747 94.45088482 -83.91015625 96.68359375 C-86.97445401 98.21574263 -89.52672045 97.91297923 -92.91015625 97.68359375 C-97.51015625 95.48359375 -97.51015625 95.48359375 -98.91015625 92.68359375 C-100.70803875 69.57638262 -93.21666508 47.14460268 -78.30078125 29.40625 C-77.511875 28.50777344 -76.72296875 27.60929687 -75.91015625 26.68359375 C-74.94335938 25.56791016 -74.94335938 25.56791016 -73.95703125 24.4296875 C-59.56842348 8.98309387 -38.71516911 -0.27824073 -18.03515625 -2.69140625 C-16.83983276 -2.83703003 -16.83983276 -2.83703003 -15.62036133 -2.9855957 C-9.94416322 -3.54470092 -4.88184576 -3.36438041 0 0 Z " fill="#757956" transform="translate(426.91015625,273.31640625)"/>
<path d="M0 0 C7.59 0 15.18 0 23 0 C23 8.25 23 16.5 23 25 C15.41 25 7.82 25 0 25 C0 16.75 0 8.5 0 0 Z " fill="#3C2F27" transform="translate(1268,171)"/>
</svg>
